Coordinates
version=1
nRows=19
nColumns=36
inDegrees=yes

Units are S.I. units (second, meters, Newtons, ...)
If the header above contains a line with 'inDegrees', this indicates whether rotational values are in degrees (yes) or radians (no).

endheader
time	pelvis_tilt	pelvis_list	pelvis_rotation	pelvis_tx	pelvis_ty	pelvis_tz	hip_flexion_r	hip_adduction_r	hip_rotation_r	knee_angle_r	knee_angle_r_beta	ankle_angle_r	subtalar_angle_r	mtp_angle_r	hip_flexion_l	hip_adduction_l	hip_rotation_l	knee_angle_l	knee_angle_l_beta	ankle_angle_l	subtalar_angle_l	mtp_angle_l	lumbar_extension	lumbar_bending	lumbar_rotation	arm_flex_r	arm_add_r	arm_rot_r	elbow_flex_r	pro_sup_r	arm_flex_l	arm_add_l	arm_rot_l	elbow_flex_l	pro_sup_l
      3.32000000	    -22.84138175	     -2.58886042	      1.51957818	     -0.35641178	      0.76695045	     -0.66754081	     80.11962375	    -13.62763528	     -1.72844620	     80.85192238	      1.41113225	     26.24085126	     -4.37126338	     -7.49979602	     83.35781045	    -11.94388265	      4.34623871	     82.08987651	      1.43273863	     24.00298723	      8.18153921	     -7.49979602	    -18.16176224	      3.21872575	      0.10239870	     43.86174274	    -15.27883353	     15.86079212	    129.73284789	    102.96317813	     52.25967180	    -13.14368691	     36.55572326	    124.48033961	    102.66041719
      3.33000000	    -23.01212382	     -2.57732939	      1.67718707	     -0.35256515	      0.77520825	     -0.66765276	     79.00895389	    -13.63588021	     -2.00098704	     79.42696779	      1.38626210	     26.10161563	     -4.37044990	     -7.49979676	     82.24604184	    -11.80818212	      4.06784829	     80.64009827	      1.40743522	     23.88992926	      8.21521300	     -7.49979676	    -17.47951056	      3.17194548	     -0.05600704	     42.87772859	    -15.27739154	     15.93590719	    129.77099718	    103.01541753	     51.15372270	    -13.10095634	     36.71235171	    124.47573792	    102.68267480
      3.34000000	    -23.16297217	     -2.53216310	      1.87201871	     -0.34869379	      0.78328035	     -0.66792586	     77.89967266	    -13.73961842	     -2.28387053	     78.04386465	      1.36212240	     25.96101343	     -4.36031659	     -7.49979730	     81.14469757	    -11.64470013	      3.71039463	     79.22437856	      1.38272625	     23.72670168	      8.25121054	     -7.49979730	    -16.76279892	      3.10755977	     -0.22374594	     41.81964913	    -15.26295588	     15.94254872	    129.80401493	    103.04963847	     49.96677194	    -13.09040471	     36.81621649	    124.47112800	    102.69218613
      3.35000000	    -23.17732776	     -2.32430738	      2.13181045	     -0.34493150	      0.79178143	     -0.66826830	     76.69740124	    -13.96382617	     -2.44149335	     76.62502579	      1.33735899	     25.58104528	     -4.62088224	     -7.49979924	     79.77079261	    -11.29291268	      3.29358607	     77.62861600	      1.35487494	     23.22366667	      8.07676974	     -7.49979924	    -16.24660978	      2.87721494	     -0.50738010	     40.73774481	    -14.99003734	     15.52084464	    129.77461404	    103.13905207	     48.78525946	    -12.93547052	     36.40876396	    124.42716630	    102.67886919
      3.36000000	    -23.38352041	     -2.22780548	      2.27029481	     -0.34115385	      0.79989009	     -0.66825697	     75.65233740	    -13.99317645	     -2.65684043	     75.14173549	      1.31147069	     25.39395251	     -4.60611254	     -7.49980005	     78.65873904	    -11.11501218	      2.98481609	     76.07803280	      1.32781216	     22.99969599	      8.07353210	     -7.49980005	    -15.47016621	      2.71429556	     -0.63503230	     39.60328299	    -14.89457847	     15.55085381	    129.80157666	    103.18903934	     47.64481687	    -12.94279970	     36.53606785	    124.45261106	    102.69874068
      3.37000000	    -23.49324670	     -1.92467157	      2.47949729	     -0.33732882	      0.80809331	     -0.66840147	     74.60322855	    -14.22385017	     -2.73995305	     73.72836029	      1.28680264	     24.89086416	     -4.90096300	     -7.49980320	     77.35948758	    -10.76846365	      2.48395850	     74.45387459	      1.29946525	     22.44913602	      7.68522709	     -7.49980320	    -14.78426122	      2.31700896	     -0.84936699	     38.36618127	    -14.66783241	     15.22960383	    129.79293929	    103.34802051	     46.43888869	    -12.86566094	     36.40096008	    124.39640423	    102.72734639
      3.38000000	    -23.69747020	     -1.88920164	      2.57510913	     -0.33335233	      0.81592616	     -0.66832540	     73.55344784	    -14.21231493	     -3.03532537	     72.27293292	      1.26140064	     24.76937465	     -4.78311115	     -7.49980357	     76.32515609	    -10.75175507	      2.07500365	     72.98850152	      1.27388967	     22.31074474	      7.75645637	     -7.49980357	    -13.91411595	      2.23425701	     -0.90677181	     37.11301547	    -14.69771942	     15.40672787	    129.83986252	    103.37995665	     45.17393912	    -12.99564920	     36.69722651	    124.41455512	    102.74853618
      3.39000000	    -23.83922137	     -1.78387072	      2.61592595	     -0.32967762	      0.82419577	     -0.66838027	     72.40541325	    -14.15089663	     -3.20176197	     70.61389788	      1.23244502	     24.55210265	     -4.65924411	     -7.49980406	     75.11029233	    -10.61254139	      1.77522786	     71.32412987	      1.24484090	     22.03262335	      7.83791587	     -7.49980406	    -13.19952419	      2.07666719	     -0.91605663	     35.97565419	    -14.67064103	     15.42696240	    129.83961489	    103.40690980	     44.01900674	    -13.04144100	     36.74298699	    124.39605291	    102.74873100
      3.40000000	    -23.45409045	     -1.53743004	      2.69375514	     -0.32610928	      0.83350800	     -0.66877120	     70.73908898	    -14.20832122	     -3.30822064	     68.93493208	      1.20314153	     23.90827321	     -4.74021562	     -7.49980578	     73.26763188	    -10.38889485	      1.30019524	     69.57045871	      1.21423357	     21.31349976	      7.64043464	     -7.49980578	    -13.18668112	      1.81060620	     -0.92908453	     35.06576394	    -14.53369730	     15.07427833	    129.78427053	    103.47980331	     42.98037362	    -12.86611377	     36.23278001	    124.27314024	    102.72273568
      3.41000000	    -23.46553570	     -1.45597199	      2.71003031	     -0.32261571	      0.84192476	     -0.66907880	     69.44484665	    -14.11787248	     -3.51229916	     67.19444367	      1.17276428	     23.59445901	     -4.70258685	     -7.49980665	     71.93671503	    -10.22915273	      1.05104489	     67.87878666	      1.18470832	     21.02927214	      7.55059748	     -7.49980665	    -12.64525624	      1.69995146	     -0.90547290	     34.00375594	    -14.52077807	     15.15872399	    129.77483227	    103.52793043	     41.86427953	    -12.88259883	     36.27096040	    124.30793892	    102.74622514
      3.42000000	    -23.11434037	     -1.37316020	      2.71279307	     -0.31886921	      0.85084964	     -0.66935706	     67.75648092	    -14.03175269	     -3.79800643	     65.45154180	      1.14234490	     23.01315541	     -4.81039758	     -7.49980817	     70.20282813	    -10.11552461	      0.76350549	     66.17960087	      1.15505193	     20.46401311	      7.31262227	     -7.49980817	    -12.53971050	      1.63244791	     -0.89346684	     33.05104362	    -14.40743855	     15.03822339	    129.73050723	    103.59353534	     40.76448939	    -12.82203382	     35.98900313	    124.27463536	    102.75928198
      3.43000000	    -22.72407483	     -1.32205579	      2.75249930	     -0.31497560	      0.85964515	     -0.66956135	     66.00504945	    -13.94602962	     -4.11353174	     63.72341322	      1.11218337	     22.38509897	     -5.04468815	     -7.49981051	     68.47627761	    -10.00122742	      0.49319253	     64.50167498	      1.12576660	     19.86895259	      6.97938929	     -7.49981051	    -12.45293207	      1.58628549	     -0.90156180	     32.07571599	    -14.33916238	     15.02458332	    129.69965616	    103.70516842	     39.67055232	    -12.84155232	     35.83330411	    124.28729164	    102.79821701
      3.44000000	    -22.43267493	     -1.27720290	      2.75952551	     -0.31110202	      0.86812734	     -0.66977713	     64.37762616	    -13.82665607	     -4.41186004	     61.96182226	      1.08143781	     21.82706774	     -5.14944797	     -7.49981276	     66.84927999	     -9.88997572	      0.27556135	     62.81752494	      1.09637264	     19.35060963	      6.79569000	     -7.49981276	    -12.21247729	      1.54143458	     -0.87189617	     31.06032996	    -14.32595118	     15.05461489	    129.66035378	    103.81662052	     38.54859506	    -12.86738932	     35.72480043	    124.27485667	    102.84244870
      3.45000000	    -22.12437523	     -1.27131275	      2.74440366	     -0.30725577	      0.87649138	     -0.66996151	     62.72121748	    -13.63425857	     -4.68976300	     60.17225379	      1.05020395	     21.24039980	     -5.25832995	     -7.49981502	     65.23926948	     -9.82852585	      0.07823385	     61.14398729	      1.06716390	     18.82548281	      6.65312852	     -7.49981502	    -11.97868977	      1.53818920	     -0.79973648	     30.06121192	    -14.29798823	     15.06351390	    129.60789823	    103.93271285	     37.43335252	    -12.89037528	     35.60538505	    124.25159601	    102.90881712
      3.46000000	    -21.83574570	     -1.28922593	      2.72056697	     -0.30344024	      0.88467049	     -0.67013913	     61.09324639	    -13.40113902	     -4.95853519	     58.35271199	      1.01844695	     20.43955626	     -5.68836864	     -7.49982145	     63.66671365	     -9.75787483	     -0.05018387	     59.47040641	      1.03795440	     18.22971909	      6.34219306	     -7.49982145	    -11.71305161	      1.57407561	     -0.71630729	     29.11509831	    -14.24850884	     15.07603602	    129.52660622	    104.25068128	     36.33358330	    -12.96275182	     35.51727854	    124.23128861	    103.13351697
      3.47000000	    -21.52258863	     -1.26827764	      2.69982529	     -0.29960622	      0.89269851	     -0.67035733	     59.45377495	    -13.22347018	     -5.21109729	     56.55855517	      0.98713301	     19.97213000	     -5.53967996	     -7.49982329	     62.05159577	     -9.66199229	     -0.18846791	     57.78272708	      1.00849884	     17.76515290	      6.37868918	     -7.49982329	    -11.44477110	      1.56913711	     -0.62155390	     28.13000780	    -14.19708543	     15.00400096	    129.44056754	    104.31712861	     35.24046129	    -12.98548949	     35.40549274	    124.14954191	    103.15729227
      3.48000000	    -21.19413312	     -1.25453503	      2.70438580	     -0.29580312	      0.90065710	     -0.67055575	     57.78023334	    -13.01910607	     -5.42188196	     54.71406963	      0.95494066	     19.40493999	     -5.59102506	     -7.49982550	     60.42260914	     -9.54795086	     -0.31641501	     56.05758909	      0.97838950	     17.24497499	      6.27157825	     -7.49982550	    -11.21309284	      1.57838069	     -0.56504560	     27.15872293	    -14.20580288	     15.03642597	    129.37524632	    104.40131072	     34.14966684	    -12.98671711	     35.30594320	    124.10123467	    103.18048004
      3.49000000	    -20.86566271	     -1.22081490	      2.70141346	     -0.29193176	      0.90843272	     -0.67071580	     56.12429467	    -12.81817897	     -5.61476444	     52.87151744	      0.92278206	     18.72168232	     -5.74464641	     -7.49982808	     58.78895376	     -9.43844422	     -0.49282514	     54.32501823	      0.94815043	     16.66334348	      6.13895405	     -7.49982808	    -10.95241511	      1.57507543	     -0.52001788	     26.17062850	    -14.21082091	     15.09767406	    129.29460052	    104.51168944	     33.02213228	    -12.98165369	     35.11212352	    124.07101747	    103.24028890
      3.50000000	    -20.53850917	     -1.19199646	      2.63111498	     -0.28809700	      0.91605548	     -0.67063698	     54.49913965	    -12.55540238	     -5.78494233	     51.02286010	      0.89051690	     18.03661384	     -5.78900273	     -7.49983020	     57.15102363	     -9.40691608	     -0.70223535	     52.58370542	      0.91775879	     16.08505744	      6.09513978	     -7.49983020	    -10.67500392	      1.54126581	     -0.40926597	     25.17567233	    -14.18550124	     15.11684361	    129.17938758	    104.60212154	     31.93112420	    -12.99738118	     34.92027825	    124.00143160	    103.30683821
